<?xml version="1.0" encoding="UTF-8" standalone="no"?>
<!-- Created with Inkscape (http://www.inkscape.org/) -->

<svg
   width="61.736111mm"
   height="21.40567mm"
   viewBox="0 0 61.736111 21.40567"
   version="1.1"
   id="svg1"
   xml:space="preserve"
   xmlns="http://www.w3.org/2000/svg"
   xmlns:svg="http://www.w3.org/2000/svg"><defs
     id="defs1" /><g
     id="layer1"
     transform="translate(-70.002214,-122.72765)"><g
       transform="matrix(0.03527778,0,0,-0.03527778,64.710541,197.04999)"
       fill="#000000"
       stroke="none"
       id="g7"
       style="fill:#000000;fill-opacity:1"><path
         d="m 452,2103 c -7,-3 -17,-16 -22,-29 -12,-32 -70,-35 -70,-5 0,25 -14,34 -40,26 -13,-4 -20,-15 -20,-31 0,-20 -6,-25 -40,-30 -22,-4 -43,-11 -47,-17 -10,-16 29,-39 59,-35 23,4 27,0 32,-34 6,-34 9,-38 34,-37 15,0 49,8 77,17 41,14 51,22 59,50 8,28 15,33 48,39 42,6 61,29 37,44 -8,5 -26,6 -41,3 -22,-4 -27,-1 -30,17 -3,24 -15,31 -36,22 z m -22,-105 c 0,-24 -15,-36 -45,-40 -24,-2 -30,1 -30,17 0,18 15,26 68,34 4,0 7,-5 7,-11 z"
         id="path1"
         style="fill:#000000;fill-opacity:1" /><path
         d="m 976,2067 c -117,-38 -141,-63 -52,-54 l 57,6 -3,-31 c -3,-29 -7,-33 -55,-43 -28,-7 -58,-8 -64,-4 -40,24 -38,-51 2,-115 30,-47 31,-48 70,-42 34,5 39,4 39,-13 0,-15 -12,-22 -51,-31 -37,-9 -54,-9 -62,-1 -16,16 -25,14 -29,-6 -2,-9 -20,-21 -43,-27 -33,-10 -40,-16 -40,-36 0,-17 5,-24 14,-22 75,16 71,18 71,-24 0,-22 5,-46 10,-54 9,-13 12,-12 25,4 8,11 13,27 11,35 -19,63 -18,68 11,79 15,6 40,14 56,18 24,5 27,3 27,-19 0,-21 -6,-25 -40,-31 -39,-6 -48,-18 -32,-43 9,-15 123,9 159,33 33,21 29,38 -7,31 -28,-6 -30,-4 -30,22 0,27 2,29 76,41 95,16 108,8 93,-60 -16,-71 -33,-90 -79,-90 h -40 l 19,-32 c 19,-34 42,-39 97,-18 32,12 68,94 72,166 4,60 4,61 -26,72 -16,5 -34,7 -38,2 -5,-4 -46,-10 -91,-12 -75,-4 -83,-3 -83,13 0,13 12,22 41,29 32,9 46,21 70,57 30,48 36,77 20,88 -5,3 -36,7 -68,9 -33,3 -58,9 -57,15 1,6 2,20 3,30 1,15 10,21 39,23 34,3 37,6 37,33 0,19 -5,30 -15,32 -8,1 -60,-13 -114,-30 z m 114,-144 c 0,-19 -41,-73 -55,-73 -23,0 -21,67 3,73 29,8 52,7 52,0 z m -120,-47 c 0,-42 -35,-61 -57,-30 -20,28 -16,40 20,52 17,5 33,10 35,11 1,1 2,-14 2,-33 z"
         id="path2"
         style="fill:#000000;fill-opacity:1" /><path
         d="m 1473,2093 c -8,-3 -13,-23 -13,-48 0,-42 -1,-44 -35,-51 -24,-4 -35,-12 -35,-23 0,-22 19,-41 42,-41 12,0 18,-8 18,-24 0,-19 -8,-27 -37,-37 -91,-30 -104,-38 -93,-59 14,-26 30,-25 90,5 27,14 52,25 55,25 3,0 5,-31 5,-70 0,-68 -1,-70 -25,-70 -25,0 -25,1 -9,25 16,25 12,45 -9,45 -7,0 -36,-32 -66,-72 -53,-71 -89,-138 -73,-138 8,0 58,58 74,85 5,8 25,11 60,7 42,-4 61,-12 90,-38 43,-39 81,-59 156,-85 59,-20 127,-25 137,-10 3,6 26,13 50,17 25,3 45,10 45,15 0,10 -16,14 -140,34 -121,19 -154,29 -201,59 -25,17 -40,36 -44,57 -8,34 -1,45 30,51 31,5 26,42 -5,46 -23,3 -25,7 -22,36 3,25 10,35 33,43 16,6 29,16 29,22 0,18 -29,25 -56,13 -21,-10 -24,-9 -24,8 0,19 25,50 41,50 15,0 10,40 -6,46 -8,4 -15,17 -15,29 0,19 -24,58 -33,54 -1,0 -8,-3 -14,-6 z"
         id="path3"
         style="fill:#000000;fill-opacity:1" /><path
         d="m 1755,2024 c -5,-1 -45,-5 -87,-9 -82,-7 -98,-20 -59,-47 19,-13 19,-15 -10,-62 -33,-53 -52,-96 -42,-96 9,0 74,78 105,127 21,33 34,43 54,43 25,0 26,-2 21,-36 -8,-49 -25,-67 -59,-62 -25,4 -27,2 -21,-21 12,-51 24,-53 83,-16 41,26 60,67 60,132 0,31 -22,54 -45,47 z"
         id="path4"
         style="fill:#000000;fill-opacity:1" /><path
         d="m 525,1903 c -83,-6 -286,-33 -332,-45 -31,-7 -43,-15 -43,-29 0,-36 31,-38 120,-9 86,29 100,29 100,6 0,-16 -62,-30 -90,-21 -42,13 -52,-94 -15,-165 13,-25 12,-29 -6,-46 -34,-31 -62,-94 -41,-94 13,0 122,93 122,105 0,6 24,16 53,21 60,11 54,16 95,-69 13,-26 29,-47 35,-47 17,0 37,21 37,38 0,26 -32,81 -50,87 -18,6 -18,7 2,41 27,46 39,101 28,130 -9,22 -13,23 -70,17 -50,-5 -60,-3 -60,9 0,20 85,31 161,20 65,-10 79,-7 79,17 0,25 -20,41 -49,39 -15,-1 -48,-3 -76,-5 z m -46,-164 c -10,-60 -7,-56 -42,-64 -22,-6 -27,-4 -27,12 0,10 10,23 21,28 29,13 29,29 2,33 -34,5 -28,26 10,38 17,5 35,9 38,7 3,-1 2,-26 -2,-54 z m -109,11 c 0,-6 -11,-15 -25,-20 -30,-11 -33,-40 -5,-40 23,0 28,-29 5,-31 -8,-1 -20,-2 -27,-3 -14,-1 -30,52 -22,76 7,23 74,39 74,18 z"
         id="path5"
         style="fill:#000000;fill-opacity:1" /><path
         d="m 1675,1799 c -27,-5 -56,-7 -62,-4 -23,8 -34,-31 -22,-83 16,-76 27,-86 89,-83 69,3 104,17 96,36 -3,9 4,36 17,61 l 22,46 -24,19 c -25,20 -39,21 -116,8 z m 55,-53 c 0,-8 -4,-26 -10,-40 -7,-20 -17,-26 -39,-26 -28,0 -41,14 -41,46 0,7 15,18 33,23 46,13 57,13 57,-3 z"
         id="path6"
         style="fill:#000000;fill-opacity:1" /><path
         d="m 1078,1714 c -3,-3 -1,-20 5,-37 5,-18 12,-38 13,-45 6,-22 39,-9 42,16 6,40 -38,88 -60,66 z"
         id="path7"
         style="fill:#000000;fill-opacity:1" /></g></g></svg>
