<?xml version="1.0" encoding="UTF-8" standalone="no"?>
<!-- Generator: Adobe Illustrator 26.5.0, SVG Export Plug-In . SVG Version: 6.00 Build 0)  -->

<svg
   version="1.1"
   id="圖層_1"
   x="0px"
   y="0px"
   width="54.299988"
   height="40.799995"
   viewBox="0 0 54.299988 40.799994"
   xml:space="preserve"
   xmlns="http://www.w3.org/2000/svg"
   xmlns:svg="http://www.w3.org/2000/svg"><defs
   id="defs137" />
<style
   type="text/css"
   id="style1">
	.st0{fill:#801924;}
	.st1{fill:#352B2B;}
	.st2{fill:#70383B;}
	.st3{fill:none;stroke:#BD9C26;stroke-width:0.2638;}
	.st4{fill:#FFFFFF;}
	.st5{fill:none;stroke:#BD9C26;stroke-width:0.1979;}
	.st6{fill:none;stroke:#C39C2A;stroke-width:0.1319;}
	.st7{fill:#FFFAD9;}
	.st8{fill:#BD9C26;}
	.st9{fill:#FAFAFA;}
	.st10{fill:#FCFAEA;}
	.st11{fill:#342B2B;}
</style>
<g
   id="g137"
   transform="translate(-277.18576,58.978995)">
	<g
   id="g25"
   transform="translate(-110.41425,-75.778997)">
		<g
   id="g8">
			<path
   class="st0"
   d="m 387.6,16.8 v 0.6 c 0.2,0 0.4,0 0.5,0 0.1,0 0.2,0.1 0.3,0.1 0.1,0.1 0.1,0.2 0.1,0.3 0,0.1 0,0.3 0,0.6 v 6 c 0,0.2 0,0.4 0,0.6 0,0.1 -0.1,0.2 -0.1,0.3 -0.1,0.1 -0.2,0.1 -0.3,0.1 -0.1,0 -0.3,0 -0.5,0 V 26 h 2.9 v -0.6 c -0.2,0 -0.4,0 -0.5,0 -0.1,0 -0.2,-0.1 -0.3,-0.1 -0.1,-0.1 -0.1,-0.2 -0.1,-0.3 0,-0.1 0,-0.3 0,-0.6 v -5.8 0 l 4.4,7.6 h 1.4 v -7.7 c 0,-0.2 0,-0.4 0,-0.6 0,-0.1 0.1,-0.2 0.1,-0.3 0.1,-0.1 0.2,-0.1 0.3,-0.1 0.1,0 0.3,0 0.5,0 v -0.6 h -2.9 v 0.6 c 0.2,0 0.4,0 0.5,0 0.1,0 0.2,0.1 0.3,0.1 0.1,0.1 0.1,0.2 0.1,0.3 0,0.1 0,0.3 0,0.6 v 5.2 0 l -3.9,-6.8 h -2.8 z"
   id="path1" />
			<path
   class="st0"
   d="m 400.7,23.2 -0.7,0.2 c -0.3,0.1 -0.6,0.2 -0.9,0.2 -0.3,0.1 -0.5,0.2 -0.7,0.3 -0.2,0.1 -0.4,0.3 -0.5,0.5 -0.1,0.2 -0.2,0.4 -0.2,0.6 0,0.2 0,0.4 0.1,0.5 0.1,0.2 0.2,0.3 0.3,0.4 0.1,0.1 0.3,0.2 0.5,0.2 0.2,0 0.3,0.1 0.5,0.1 0.3,0 0.5,0 0.7,-0.1 0.2,-0.1 0.3,-0.1 0.5,-0.2 0.1,-0.1 0.2,-0.2 0.4,-0.3 v 0 c 0,0.1 0.1,0.2 0.2,0.3 0.1,0.1 0.2,0.1 0.3,0.2 0.1,0 0.3,0.1 0.5,0.1 0.2,0 0.3,0 0.4,0 0.1,0 0.2,0 0.3,-0.1 0.1,0 0.2,-0.1 0.3,-0.1 l -0.1,-0.4 c 0,0 -0.1,0 -0.1,0.1 0,0 -0.1,0 -0.1,0 -0.1,0 -0.1,0 -0.2,-0.1 0,0 -0.1,-0.1 -0.1,-0.2 0,-0.1 0,-0.2 0,-0.4 v -2 c 0,-0.3 0,-0.5 -0.1,-0.7 -0.1,-0.2 -0.2,-0.4 -0.3,-0.5 -0.1,-0.1 -0.3,-0.2 -0.5,-0.3 -0.2,-0.1 -0.4,-0.1 -0.5,-0.1 -0.2,0 -0.4,0 -0.6,0 -0.3,0 -0.6,0 -0.9,0.1 -0.2,0 -0.4,0.1 -0.6,0.2 -0.2,0.1 -0.3,0.2 -0.4,0.3 -0.1,0.1 -0.1,0.2 -0.2,0.3 0,0.1 -0.1,0.2 -0.1,0.2 0,0.1 0,0.2 0.1,0.2 0,0.1 0.1,0.1 0.2,0.2 0.1,0 0.2,0.1 0.3,0.1 0.1,0 0.2,0 0.3,0 0.1,0 0.1,-0.1 0.2,-0.1 0,-0.1 0.1,-0.1 0.1,-0.2 0,-0.1 0.1,-0.1 0.1,-0.2 0,-0.1 0.1,-0.2 0.2,-0.2 0.1,-0.1 0.1,-0.1 0.2,-0.2 0.1,0 0.2,-0.1 0.4,-0.1 0.1,0 0.3,0 0.4,0.1 0.1,0.1 0.2,0.1 0.3,0.3 0.1,0.1 0.1,0.3 0.1,0.6 v 0.2 z m 0,2 c -0.1,0.1 -0.1,0.1 -0.2,0.2 -0.1,0.1 -0.2,0.1 -0.3,0.1 -0.1,0 -0.2,0.1 -0.3,0.1 -0.1,0 -0.2,0 -0.4,-0.1 -0.1,-0.1 -0.2,-0.1 -0.2,-0.3 -0.1,-0.1 -0.1,-0.3 -0.1,-0.4 0,-0.2 0.1,-0.4 0.2,-0.6 0.1,-0.2 0.3,-0.3 0.5,-0.4 0.2,-0.1 0.5,-0.2 0.7,-0.3 v 1.7 z"
   id="path2" />
			<path
   class="st0"
   d="m 404.2,22 v 2.9 c 0,0.3 0,0.5 0.1,0.7 0.1,0.2 0.2,0.3 0.3,0.4 0.1,0.1 0.3,0.2 0.5,0.2 0.2,0 0.4,0.1 0.6,0.1 0.2,0 0.4,0 0.6,0 0.2,0 0.3,-0.1 0.4,-0.1 0.1,-0.1 0.2,-0.1 0.3,-0.2 l -0.2,-0.3 c -0.1,0.1 -0.2,0.1 -0.3,0.2 -0.1,0 -0.2,0.1 -0.3,0.1 -0.1,0 -0.2,0 -0.3,-0.1 -0.1,0 -0.1,-0.1 -0.2,-0.2 0,-0.1 -0.1,-0.3 -0.1,-0.5 V 22 h 1.2 v -0.4 h -1.2 v -1.5 h -0.4 c -0.1,0.3 -0.2,0.6 -0.4,0.8 -0.2,0.2 -0.3,0.4 -0.5,0.5 -0.2,0.1 -0.4,0.2 -0.7,0.2 V 22 Z"
   id="path3" />
			<path
   class="st0"
   d="m 409.3,19.4 c -0.1,0 -0.3,0 -0.4,0.1 -0.1,0.1 -0.2,0.2 -0.3,0.3 -0.1,0.1 -0.1,0.3 -0.1,0.4 0,0.2 0,0.3 0.1,0.4 0.1,0.1 0.2,0.2 0.3,0.3 0.1,0.1 0.3,0.1 0.4,0.1 0.2,0 0.3,0 0.4,-0.1 0.1,-0.1 0.2,-0.2 0.3,-0.3 0.1,-0.1 0.1,-0.3 0.1,-0.4 0,-0.1 0,-0.3 -0.1,-0.4 -0.1,-0.1 -0.2,-0.2 -0.3,-0.3 -0.1,-0.1 -0.3,-0.1 -0.4,-0.1 z m 0.6,2 c -0.3,0.1 -0.7,0.2 -1,0.3 -0.3,0.1 -0.6,0.1 -0.9,0.1 v 0.4 c 0.1,0 0.3,0 0.3,0 0.1,0 0.1,0 0.2,0.1 0,0 0.1,0.1 0.1,0.2 0,0.1 0,0.2 0,0.4 V 25 c 0,0.2 0,0.3 0,0.4 0,0.1 0,0.2 -0.1,0.2 0,0 -0.1,0.1 -0.2,0.1 -0.1,0 -0.2,0 -0.3,0 v 0.4 h 2.6 v -0.4 c -0.1,0 -0.2,0 -0.3,0 -0.1,0 -0.1,0 -0.2,-0.1 0,0 -0.1,-0.1 -0.1,-0.2 0,-0.1 0,-0.2 0,-0.4 v -3.5 z"
   id="path4" />
			<path
   class="st0"
   d="m 414.2,26.2 c 0.4,0 0.7,0 1,-0.1 0.3,-0.1 0.5,-0.2 0.7,-0.4 0.2,-0.2 0.3,-0.3 0.5,-0.5 0.1,-0.2 0.2,-0.4 0.2,-0.7 0,-0.2 0.1,-0.5 0.1,-0.7 0,-0.5 -0.1,-0.9 -0.3,-1.3 -0.2,-0.4 -0.5,-0.6 -0.8,-0.8 -0.4,-0.2 -0.8,-0.3 -1.4,-0.3 -0.5,0 -1,0.1 -1.4,0.3 -0.4,0.2 -0.7,0.4 -0.8,0.8 -0.2,0.4 -0.3,0.8 -0.3,1.3 0,0.3 0,0.6 0.1,0.9 0.1,0.3 0.2,0.5 0.4,0.8 0.2,0.2 0.4,0.4 0.8,0.5 0.3,0.1 0.7,0.2 1.2,0.2 z m 0,-4.4 c 0.1,0 0.3,0 0.4,0.1 0.1,0.1 0.2,0.1 0.3,0.3 0.1,0.2 0.2,0.4 0.2,0.6 0.1,0.3 0.1,0.6 0.1,1 0,0.4 0,0.7 -0.1,1 -0.1,0.3 -0.1,0.5 -0.3,0.6 -0.1,0.1 -0.2,0.2 -0.3,0.3 -0.1,0.1 -0.2,0.1 -0.4,0.1 -0.1,0 -0.3,0 -0.4,-0.1 -0.1,-0.1 -0.2,-0.1 -0.3,-0.3 -0.1,-0.2 -0.2,-0.4 -0.2,-0.6 -0.1,-0.3 -0.1,-0.6 -0.1,-1 0,-0.3 0,-0.6 0,-0.8 0,-0.2 0.1,-0.5 0.2,-0.6 0.1,-0.2 0.2,-0.3 0.3,-0.4 0.2,-0.1 0.4,-0.2 0.6,-0.2 z"
   id="path5" />
			<path
   class="st0"
   d="m 419.8,22.2 v -0.7 l -0.2,-0.1 c -0.2,0.1 -0.4,0.2 -0.6,0.2 -0.2,0.1 -0.4,0.1 -0.6,0.1 -0.2,0 -0.4,0.1 -0.6,0.1 v 0.4 c 0.1,0 0.2,0 0.3,0 0.1,0 0.1,0 0.2,0.1 0,0 0.1,0.1 0.1,0.2 0,0.1 0,0.2 0,0.4 v 2 c 0,0.2 0,0.3 0,0.4 0,0.1 0,0.2 -0.1,0.2 0,0 -0.1,0.1 -0.2,0.1 -0.1,0 -0.2,0 -0.3,0 V 26 h 2.4 v -0.4 c -0.1,0 -0.2,0 -0.2,0 -0.1,0 -0.1,0 -0.1,-0.1 0,0 0,-0.1 -0.1,-0.2 0,-0.1 0,-0.2 0,-0.4 v -2.2 c 0.1,-0.2 0.2,-0.3 0.4,-0.4 0.1,-0.1 0.2,-0.2 0.4,-0.3 0.1,-0.1 0.2,-0.1 0.3,-0.1 0.1,0 0.2,0 0.3,0.1 0.1,0.1 0.1,0.1 0.2,0.2 0,0.1 0.1,0.2 0.1,0.3 0,0.1 0,0.2 0,0.4 v 2 c 0,0.2 0,0.3 0,0.4 0,0.1 0,0.2 -0.1,0.2 0,0 -0.1,0.1 -0.1,0.1 -0.1,0 -0.1,0 -0.2,0 V 26 h 2.4 v -0.4 c -0.1,0 -0.2,0 -0.3,-0.1 -0.1,0 -0.1,-0.1 -0.1,-0.2 0,-0.1 0,-0.3 0,-0.4 v -2.1 c 0,-0.3 0,-0.6 -0.1,-0.8 -0.1,-0.2 -0.3,-0.4 -0.5,-0.5 -0.2,-0.1 -0.5,-0.2 -0.9,-0.2 -0.2,0 -0.4,0 -0.6,0.1 -0.2,0.1 -0.4,0.1 -0.5,0.3 -0.4,0.2 -0.5,0.3 -0.7,0.5 z"
   id="path6" />
			<path
   class="st0"
   d="m 427.4,23.2 -0.7,0.2 c -0.3,0.1 -0.6,0.2 -0.9,0.2 -0.3,0.1 -0.5,0.2 -0.7,0.3 -0.2,0.1 -0.4,0.3 -0.5,0.5 -0.1,0.2 -0.2,0.4 -0.2,0.6 0,0.2 0,0.4 0.1,0.5 0.1,0.2 0.2,0.3 0.3,0.4 0.1,0.1 0.3,0.2 0.5,0.2 0.2,0 0.3,0.1 0.5,0.1 0.3,0 0.5,0 0.7,-0.1 0.2,-0.1 0.3,-0.1 0.5,-0.2 0.1,-0.1 0.2,-0.2 0.4,-0.3 v 0 c 0,0.1 0.1,0.2 0.2,0.3 0.1,0.1 0.2,0.1 0.3,0.2 0.1,0 0.3,0.1 0.5,0.1 0.2,0 0.3,0 0.4,0 0.1,0 0.2,0 0.3,-0.1 0.1,0 0.2,-0.1 0.3,-0.1 l -0.1,-0.4 c 0,0 -0.1,0 -0.1,0.1 0,0 -0.1,0 -0.1,0 -0.1,0 -0.1,0 -0.2,-0.1 0,0 -0.1,-0.1 -0.1,-0.2 0,-0.1 0,-0.2 0,-0.4 v -2 c 0,-0.3 0,-0.5 -0.1,-0.7 -0.1,-0.2 -0.2,-0.4 -0.3,-0.5 -0.1,-0.1 -0.3,-0.2 -0.5,-0.3 -0.2,-0.1 -0.4,-0.1 -0.5,-0.1 -0.2,0 -0.4,0 -0.6,0 -0.3,0 -0.6,0 -0.9,0.1 -0.2,0 -0.4,0.1 -0.6,0.2 -0.2,0.1 -0.3,0.2 -0.4,0.3 -0.1,0.1 -0.1,0.2 -0.2,0.3 0,0.1 -0.1,0.2 -0.1,0.2 0,0.1 0,0.2 0.1,0.2 0,0.1 0.1,0.1 0.2,0.2 0.1,0 0.2,0.1 0.3,0.1 0.1,0 0.2,0 0.3,0 0.1,0 0.1,-0.1 0.2,-0.1 0,-0.1 0.1,-0.1 0.1,-0.2 0,-0.1 0.1,-0.1 0.1,-0.2 0,-0.1 0.1,-0.2 0.2,-0.2 0.1,-0.1 0.1,-0.1 0.2,-0.2 0.1,0 0.2,-0.1 0.4,-0.1 0.1,0 0.3,0 0.4,0.1 0.1,0.1 0.2,0.1 0.3,0.3 0.1,0.1 0.1,0.3 0.1,0.6 v 0.2 z m 0,2 c -0.1,0.1 -0.1,0.1 -0.2,0.2 -0.1,0.1 -0.2,0.1 -0.3,0.1 -0.1,0 -0.2,0.1 -0.3,0.1 -0.1,0 -0.2,0 -0.3,-0.1 -0.1,-0.1 -0.2,-0.1 -0.2,-0.3 -0.1,-0.1 -0.1,-0.3 -0.1,-0.4 0,-0.2 0.1,-0.4 0.2,-0.6 0.1,-0.2 0.3,-0.3 0.5,-0.4 0.2,-0.1 0.5,-0.2 0.7,-0.3 z"
   id="path7" />
			<path
   class="st0"
   d="m 430.3,26.1 h 2.6 v -0.4 c -0.1,0 -0.2,0 -0.3,0 -0.1,0 -0.1,-0.1 -0.2,-0.1 0,-0.1 -0.1,-0.1 -0.1,-0.2 0,-0.1 0,-0.2 0,-0.4 v -5.8 l -0.2,-0.1 c -0.2,0.1 -0.4,0.2 -0.7,0.2 -0.2,0.1 -0.4,0.1 -0.6,0.1 -0.2,0 -0.4,0.1 -0.6,0.1 v 0.3 c 0.1,0 0.3,0 0.3,0 0.1,0 0.1,0.1 0.2,0.1 0,0 0.1,0.1 0.1,0.2 0,0.1 0,0.2 0,0.4 V 25 c 0,0.2 0,0.3 0,0.4 0,0.1 0,0.2 -0.1,0.2 0,0.1 -0.1,0.1 -0.2,0.1 -0.1,0 -0.2,0 -0.3,0 v 0.4 z"
   id="path8" />
		</g>
		<g
   id="g14">
			<path
   class="st0"
   d="m 393.7,32.9 c 0.2,0 0.3,0 0.4,0 0.1,0 0.2,0.1 0.3,0.1 0.1,0.1 0.2,0.1 0.2,0.3 0.1,0.1 0.1,0.3 0.2,0.5 0.1,0.2 0.1,0.5 0.2,0.8 h 0.8 l -0.3,-2.4 H 388 l -0.3,2.4 h 0.8 c 0.1,-0.3 0.1,-0.6 0.2,-0.8 0.1,-0.2 0.1,-0.4 0.2,-0.5 0.1,-0.1 0.1,-0.2 0.2,-0.3 0.1,-0.1 0.2,-0.1 0.3,-0.1 0.1,0 0.3,0 0.4,0 h 1 v 6.9 c 0,0.2 0,0.4 0,0.6 0,0.1 -0.1,0.2 -0.2,0.3 -0.1,0.1 -0.2,0.1 -0.4,0.1 -0.2,0 -0.4,0 -0.7,0 v 0.6 h 4.5 v -0.6 c -0.3,0 -0.5,0 -0.7,0 -0.2,0 -0.3,-0.1 -0.4,-0.1 -0.1,-0.1 -0.1,-0.2 -0.2,-0.3 0,-0.1 0,-0.3 0,-0.6 v -6.9 z"
   id="path9" />
			<path
   class="st0"
   d="m 399.9,38.5 -0.7,0.2 c -0.3,0.1 -0.6,0.2 -0.9,0.2 -0.3,0.1 -0.5,0.2 -0.7,0.3 -0.2,0.1 -0.4,0.3 -0.5,0.5 -0.1,0.2 -0.2,0.4 -0.2,0.6 0,0.2 0,0.4 0.1,0.5 0.1,0.2 0.2,0.3 0.3,0.4 0.1,0.1 0.3,0.2 0.5,0.2 0.2,0 0.3,0.1 0.5,0.1 0.3,0 0.5,0 0.7,-0.1 0.2,-0.1 0.3,-0.1 0.5,-0.2 0.1,-0.1 0.2,-0.2 0.3,-0.3 v 0 c 0,0.1 0.1,0.2 0.2,0.3 0.1,0.1 0.2,0.1 0.3,0.2 0.1,0 0.3,0.1 0.5,0.1 0.2,0 0.3,0 0.4,0 0.1,0 0.2,0 0.3,-0.1 0.1,0 0.2,-0.1 0.3,-0.1 l -0.1,-0.4 c 0,0 -0.1,0 -0.1,0.1 0,0 -0.1,0 -0.1,0 -0.1,0 -0.1,0 -0.2,-0.1 0,0 -0.1,-0.1 -0.1,-0.2 0,-0.1 0,-0.2 0,-0.4 v -2 c 0,-0.3 0,-0.5 -0.1,-0.7 -0.1,-0.2 -0.2,-0.4 -0.3,-0.5 -0.1,-0.1 -0.3,-0.2 -0.5,-0.3 -0.2,-0.1 -0.4,-0.1 -0.5,-0.1 -0.2,0 -0.4,0 -0.6,0 -0.3,0 -0.6,0 -0.9,0.1 -0.2,0 -0.4,0.1 -0.6,0.2 -0.2,0.1 -0.3,0.2 -0.4,0.3 -0.1,0.1 -0.1,0.2 -0.2,0.3 0,0.1 -0.1,0.2 0,0.2 0,0.1 0,0.2 0.1,0.2 0,0.1 0.1,0.1 0.2,0.2 0.1,0 0.2,0.1 0.3,0.1 0.1,0 0.2,0 0.3,0 0.1,0 0.1,-0.1 0.2,-0.1 0.1,-0.1 0.1,-0.1 0.1,-0.2 0,-0.1 0.1,-0.1 0.1,-0.2 0,-0.1 0.1,-0.2 0.2,-0.2 0.1,-0.1 0.1,-0.1 0.2,-0.2 0.1,0 0.2,-0.1 0.4,-0.1 0.1,0 0.3,0 0.4,0.1 0.1,0.1 0.2,0.1 0.3,0.3 0.1,0.1 0.1,0.3 0.1,0.6 v 0.2 z m 0,2 c -0.1,0.1 -0.1,0.1 -0.2,0.2 -0.1,0.1 -0.2,0.1 -0.3,0.1 -0.1,0 -0.2,0.1 -0.3,0.1 -0.1,0 -0.2,0 -0.4,-0.1 -0.1,-0.1 -0.2,-0.1 -0.2,-0.3 -0.1,-0.1 -0.1,-0.3 -0.1,-0.4 0,-0.2 0.1,-0.4 0.2,-0.6 0.1,-0.2 0.3,-0.3 0.5,-0.4 0.2,-0.1 0.5,-0.2 0.7,-0.3 v 1.7 z"
   id="path10" />
			<path
   class="st0"
   d="m 404.1,34.7 c -0.1,0 -0.3,0 -0.4,0.1 -0.1,0.1 -0.2,0.2 -0.3,0.3 -0.1,0.1 -0.1,0.3 -0.1,0.4 0,0.2 0,0.3 0.1,0.4 0.1,0.1 0.2,0.2 0.3,0.3 0.1,0.1 0.3,0.1 0.4,0.1 0.2,0 0.3,0 0.4,-0.1 0.1,-0.1 0.2,-0.2 0.3,-0.3 0.1,-0.1 0.1,-0.3 0.1,-0.4 0,-0.1 0,-0.3 -0.1,-0.4 -0.1,-0.1 -0.2,-0.2 -0.3,-0.3 -0.1,-0.1 -0.2,-0.1 -0.4,-0.1 z m 0.6,2 c -0.3,0.1 -0.7,0.2 -1,0.3 -0.3,0.1 -0.6,0.1 -0.9,0.1 v 0.4 c 0.1,0 0.3,0 0.3,0 0.1,0 0.1,0 0.2,0.1 0,0 0.1,0.1 0.1,0.2 0,0.1 0,0.2 0,0.4 v 2.1 c 0,0.2 0,0.3 0,0.4 0,0.1 0,0.2 -0.1,0.2 0,0 -0.1,0.1 -0.2,0.1 -0.1,0 -0.2,0 -0.3,0 v 0.4 h 2.6 V 41 c -0.1,0 -0.2,0 -0.3,0 -0.1,0 -0.1,0 -0.2,-0.1 0,0 -0.1,-0.1 -0.1,-0.2 0,-0.1 0,-0.2 0,-0.4 v -3.5 z"
   id="path11" />
			<path
   class="st0"
   d="m 413.8,36.8 h -1.4 v 0.4 c 0.1,0 0.2,0 0.3,0 0.1,0 0.1,0.1 0.1,0.1 0,0 0,0.1 0,0.1 0,0 0,0.1 0,0.1 L 412,40 v 0 l -0.8,-2.4 c 0,-0.1 0,-0.1 0,-0.2 0,0 0,-0.1 0,-0.1 0,-0.1 0,-0.1 0.1,-0.2 0.1,0 0.2,0 0.3,0 v -0.4 h -2.1 v 0.4 c 0.1,0 0.2,0 0.2,0 0.1,0 0.1,0 0.1,0 0,0 0.1,0.1 0.1,0.1 0,0 0,0.1 0.1,0.2 l -0.8,2.6 v 0 l -0.8,-2.4 c 0,-0.1 -0.1,-0.2 -0.1,-0.2 0,-0.1 0,-0.1 0,-0.1 0,-0.1 0,-0.1 0.1,-0.2 0.1,0 0.2,0 0.3,0 v -0.4 h -2.2 v 0.4 c 0.1,0 0.1,0 0.2,0 0,0 0.1,0 0.1,0.1 0,0 0.1,0.1 0.1,0.2 0,0.1 0.1,0.2 0.1,0.4 l 1.4,3.7 h 0.9 l 1.1,-3.2 v 0 l 1,3.2 h 0.9 l 1.3,-3.8 c 0,-0.1 0.1,-0.2 0.1,-0.3 0,-0.1 0.1,-0.1 0.1,-0.1 0.1,0 0.1,0 0.2,0 v -0.5 z"
   id="path12" />
			<path
   class="st0"
   d="m 417.7,38.5 -0.7,0.2 c -0.3,0.1 -0.6,0.2 -0.9,0.2 -0.3,0.1 -0.5,0.2 -0.7,0.3 -0.2,0.1 -0.4,0.3 -0.5,0.5 -0.1,0.2 -0.2,0.4 -0.2,0.6 0,0.2 0,0.4 0.1,0.5 0.1,0.2 0.2,0.3 0.3,0.4 0.1,0.1 0.3,0.2 0.5,0.2 0.2,0 0.3,0.1 0.5,0.1 0.3,0 0.5,0 0.7,-0.1 0.2,-0.1 0.3,-0.1 0.5,-0.2 0.1,-0.1 0.2,-0.2 0.4,-0.3 v 0 c 0,0.1 0.1,0.2 0.2,0.3 0.1,0.1 0.2,0.1 0.3,0.2 0.1,0 0.3,0.1 0.5,0.1 0.2,0 0.3,0 0.4,0 0.1,0 0.2,0 0.3,-0.1 0.1,0 0.2,-0.1 0.3,-0.1 l -0.1,-0.4 c 0,0 -0.1,0 -0.1,0.1 0,0 -0.1,0 -0.1,0 -0.1,0 -0.1,0 -0.2,-0.1 0,0 -0.1,-0.1 -0.1,-0.2 0,-0.1 0,-0.2 0,-0.4 v -2 c 0,-0.3 0,-0.5 -0.1,-0.7 -0.1,-0.2 -0.2,-0.4 -0.3,-0.5 -0.1,-0.1 -0.3,-0.2 -0.5,-0.3 -0.2,-0.1 -0.4,-0.1 -0.5,-0.1 -0.2,0 -0.4,0 -0.6,0 -0.3,0 -0.6,0 -0.9,0.1 -0.2,0 -0.4,0.1 -0.6,0.2 -0.2,0.1 -0.3,0.2 -0.4,0.3 -0.1,0.1 -0.1,0.2 -0.2,0.3 0,0.1 -0.1,0.2 -0.1,0.2 0,0.1 0,0.2 0.1,0.2 0,0.1 0.1,0.1 0.2,0.2 0.1,0 0.2,0.1 0.3,0.1 0.1,0 0.2,0 0.3,0 0.1,0 0.1,-0.1 0.2,-0.1 0.1,-0.1 0.1,-0.1 0.1,-0.2 0,-0.1 0.1,-0.1 0.1,-0.2 0,-0.1 0.1,-0.2 0.2,-0.2 0.1,-0.1 0.1,-0.1 0.2,-0.2 0.1,0 0.2,-0.1 0.4,-0.1 0.1,0 0.3,0 0.4,0.1 0.1,0.1 0.2,0.1 0.3,0.3 0.1,0.1 0.1,0.3 0.1,0.6 v 0.2 z m 0,2 c -0.1,0.1 -0.1,0.1 -0.2,0.2 -0.1,0.1 -0.2,0.1 -0.3,0.1 -0.1,0 -0.2,0.1 -0.3,0.1 -0.1,0 -0.2,0 -0.4,-0.1 -0.1,-0.1 -0.2,-0.1 -0.2,-0.3 -0.1,-0.1 -0.1,-0.3 -0.1,-0.4 0,-0.2 0.1,-0.4 0.2,-0.6 0.1,-0.2 0.3,-0.3 0.5,-0.4 0.2,-0.1 0.5,-0.2 0.7,-0.3 v 1.7 z"
   id="path13" />
			<path
   class="st0"
   d="m 422.6,37.5 v -0.7 l -0.2,-0.1 c -0.2,0.1 -0.4,0.2 -0.6,0.2 -0.2,0.1 -0.4,0.1 -0.6,0.1 -0.2,0 -0.4,0.1 -0.6,0.1 v 0.4 c 0.1,0 0.2,0 0.3,0 0.1,0 0.1,0 0.2,0.1 0,0 0.1,0.1 0.1,0.2 0,0.1 0,0.2 0,0.4 v 2 c 0,0.2 0,0.3 0,0.4 0,0.1 0,0.2 -0.1,0.2 0,0 -0.1,0.1 -0.2,0.1 -0.1,0 -0.2,0 -0.3,0 v 0.4 H 423 V 41 c -0.1,0 -0.2,0 -0.2,0 -0.1,0 -0.1,0 -0.1,-0.1 0,0 0,-0.1 -0.1,-0.2 0,-0.1 0,-0.2 0,-0.4 v -2.2 c 0.1,-0.2 0.2,-0.3 0.4,-0.4 0.1,-0.1 0.2,-0.2 0.4,-0.3 0.1,-0.1 0.2,-0.1 0.3,-0.1 0.1,0 0.2,0 0.3,0.1 0.1,0.1 0.2,0.1 0.2,0.2 0,0.1 0.1,0.2 0.1,0.3 0,0.1 0,0.2 0,0.4 v 2 c 0,0.2 0,0.3 0,0.4 0,0.1 0,0.2 -0.1,0.2 0,0 -0.1,0.1 -0.1,0.1 -0.1,0 -0.1,0 -0.2,0 v 0.4 h 2.4 V 41 c -0.1,0 -0.2,0 -0.3,-0.1 -0.1,0 -0.1,-0.1 -0.1,-0.2 0,-0.1 0,-0.3 0,-0.4 v -2.1 c 0,-0.3 0,-0.6 -0.1,-0.8 -0.1,-0.2 -0.3,-0.4 -0.5,-0.5 -0.2,-0.1 -0.5,-0.2 -0.9,-0.2 -0.2,0 -0.4,0 -0.6,0.1 -0.2,0.1 -0.4,0.1 -0.5,0.3 -0.4,0.1 -0.5,0.2 -0.7,0.4 z"
   id="path14" />
		</g>
		<g
   id="g24">
			<path
   class="st0"
   d="m 390.7,47.5 c 0,-0.2 0,-0.4 0,-0.6 0,-0.1 0.1,-0.2 0.1,-0.3 0.1,-0.1 0.2,-0.1 0.3,-0.1 0.1,0 0.3,0 0.5,0 v -0.6 h -4 v 0.6 c 0.2,0 0.4,0 0.5,0 0.1,0 0.2,0.1 0.3,0.1 0.1,0.1 0.1,0.2 0.1,0.3 0,0.1 0,0.3 0,0.6 V 52 c 0,0.4 0,0.7 0.1,1.1 0,0.3 0.1,0.6 0.3,0.9 0.1,0.3 0.3,0.5 0.6,0.7 0.3,0.2 0.6,0.3 1,0.4 0.4,0.1 0.9,0.2 1.6,0.2 0.5,0 0.9,-0.1 1.3,-0.2 0.3,-0.1 0.6,-0.2 0.9,-0.4 0.2,-0.2 0.4,-0.4 0.6,-0.6 0.1,-0.2 0.2,-0.5 0.3,-0.7 0.1,-0.2 0.1,-0.5 0.1,-0.7 0,-0.2 0,-0.5 0,-0.7 v -4.6 c 0,-0.2 0,-0.4 0,-0.6 0,-0.1 0.1,-0.2 0.1,-0.3 0.1,-0.1 0.2,-0.1 0.3,-0.1 0.1,0 0.3,0 0.5,0 v -0.6 h -2.7 v 0.6 c 0.2,0 0.4,0 0.5,0 0.1,0 0.2,0.1 0.3,0.1 0.1,0.1 0.1,0.2 0.1,0.3 0,0.1 0,0.3 0,0.6 v 4.5 c 0,0.1 0,0.3 0,0.5 0,0.2 0,0.3 -0.1,0.5 0,0.2 -0.1,0.4 -0.2,0.5 -0.1,0.2 -0.2,0.3 -0.3,0.5 -0.1,0.1 -0.3,0.3 -0.5,0.3 -0.2,0.1 -0.5,0.1 -0.8,0.1 -0.3,0 -0.6,-0.1 -0.9,-0.2 -0.2,-0.1 -0.4,-0.2 -0.5,-0.4 -0.1,-0.2 -0.2,-0.4 -0.3,-0.6 -0.1,-0.2 -0.1,-0.4 -0.1,-0.7 0,-0.2 0,-0.4 0,-0.6 z"
   id="path15" />
			<path
   class="st0"
   d="m 399.5,51.2 v -0.7 l -0.2,-0.1 c -0.2,0.1 -0.4,0.2 -0.6,0.2 -0.2,0.1 -0.4,0.1 -0.6,0.1 -0.2,0 -0.4,0.1 -0.6,0.1 v 0.4 c 0.1,0 0.2,0 0.3,0 0.1,0 0.1,0 0.2,0.1 0,0 0.1,0.1 0.1,0.2 0,0.1 0,0.2 0,0.4 v 2 c 0,0.2 0,0.3 0,0.4 0,0.1 0,0.2 -0.1,0.2 0,0 -0.1,0.1 -0.2,0.1 -0.1,0 -0.2,0 -0.3,0 V 55 h 2.4 v -0.4 c -0.1,0 -0.2,0 -0.2,0 -0.1,0 -0.1,0 -0.1,-0.1 0,0 0,-0.1 -0.1,-0.2 0,-0.1 0,-0.2 0,-0.4 v -2.2 c 0.1,-0.2 0.2,-0.3 0.4,-0.4 0.1,-0.1 0.2,-0.2 0.4,-0.3 0.1,-0.1 0.2,-0.1 0.3,-0.1 0.1,0 0.2,0 0.3,0.1 0.1,0.1 0.1,0.1 0.2,0.2 0,0.1 0.1,0.2 0.1,0.3 0,0.1 0,0.2 0,0.4 v 2 c 0,0.2 0,0.3 0,0.4 0,0.1 0,0.2 -0.1,0.2 0,0 -0.1,0.1 -0.1,0.1 -0.1,0 -0.1,0 -0.2,0 V 55 h 2.4 v -0.4 c -0.1,0 -0.2,0 -0.3,-0.1 -0.1,0 -0.1,-0.1 -0.1,-0.2 0,-0.1 0,-0.3 0,-0.4 v -2.1 c 0,-0.3 0,-0.6 -0.1,-0.8 -0.1,-0.2 -0.3,-0.4 -0.5,-0.5 -0.2,-0.1 -0.5,-0.2 -0.9,-0.2 -0.2,0 -0.4,0 -0.6,0.1 -0.2,0.1 -0.4,0.1 -0.5,0.3 -0.4,0.2 -0.5,0.3 -0.7,0.5 z"
   id="path16" />
			<path
   class="st0"
   d="m 405.4,48.4 c -0.2,0 -0.3,0 -0.4,0.1 -0.1,0.1 -0.2,0.2 -0.3,0.3 -0.1,0.1 -0.1,0.3 -0.1,0.4 0,0.2 0,0.3 0.1,0.4 0.1,0.1 0.2,0.2 0.3,0.3 0.1,0.1 0.3,0.1 0.4,0.1 0.2,0 0.3,0 0.4,-0.1 0.1,-0.1 0.2,-0.2 0.3,-0.3 0.1,-0.1 0.1,-0.3 0.1,-0.4 0,-0.1 0,-0.3 -0.1,-0.4 -0.1,-0.1 -0.2,-0.2 -0.3,-0.3 -0.1,-0.1 -0.2,-0.1 -0.4,-0.1 z m 0.6,2 c -0.3,0.1 -0.7,0.2 -1,0.3 -0.3,0.1 -0.6,0.1 -0.9,0.1 v 0.4 c 0.1,0 0.3,0 0.3,0 0.1,0 0.1,0 0.2,0.1 0,0 0.1,0.1 0.1,0.2 0,0.1 0,0.2 0,0.4 V 54 c 0,0.2 0,0.3 0,0.4 0,0.1 0,0.2 -0.1,0.2 0,0 -0.1,0.1 -0.2,0.1 -0.1,0 -0.2,0 -0.3,0 v 0.4 h 2.6 v -0.4 c -0.1,0 -0.2,0 -0.3,0 -0.1,0 -0.1,0 -0.2,-0.1 0,0 -0.1,-0.1 -0.1,-0.2 0,-0.1 0,-0.2 0,-0.4 v -3.5 z"
   id="path17" />
			<path
   class="st0"
   d="m 412.1,51.4 c 0.1,-0.1 0.1,-0.2 0.2,-0.3 0.1,-0.1 0.1,-0.1 0.2,-0.1 0.1,0 0.1,0 0.2,0 v -0.4 h -1.5 V 51 c 0.1,0 0.2,0 0.3,0 0.1,0 0.1,0.1 0.1,0.1 0,0 0,0.1 0,0.1 0,0 0,0.1 0,0.1 l -0.9,2.4 v 0 l -0.9,-2.3 c 0,-0.1 -0.1,-0.1 -0.1,-0.2 0,-0.1 0,-0.1 0,-0.1 0,-0.1 0,-0.1 0.1,-0.1 0.1,0 0.2,0 0.3,0 v -0.4 h -2.5 V 51 c 0.1,0 0.1,0 0.2,0 0.1,0 0.1,0 0.1,0.1 0,0 0.1,0.1 0.1,0.2 0.1,0.1 0.1,0.2 0.2,0.3 l 1.7,3.7 h 0.6 z"
   id="path18" />
			<path
   class="st0"
   d="m 417.5,53.9 c 0,0.1 -0.1,0.2 -0.2,0.3 -0.1,0.1 -0.2,0.2 -0.3,0.3 -0.1,0.1 -0.2,0.2 -0.4,0.2 -0.1,0.1 -0.3,0.1 -0.5,0.1 -0.2,0 -0.4,0 -0.5,-0.1 -0.2,-0.1 -0.3,-0.2 -0.4,-0.4 -0.1,-0.2 -0.2,-0.4 -0.3,-0.6 -0.1,-0.2 -0.1,-0.5 -0.1,-0.8 h 3.1 c 0,-0.1 0,-0.2 0,-0.3 0,-0.1 0,-0.3 -0.1,-0.4 0,-0.1 -0.1,-0.3 -0.1,-0.5 -0.1,-0.2 -0.1,-0.3 -0.2,-0.5 -0.1,-0.1 -0.2,-0.3 -0.4,-0.4 -0.2,-0.1 -0.4,-0.2 -0.6,-0.3 -0.2,-0.1 -0.5,-0.1 -0.8,-0.1 -0.3,0 -0.6,0 -0.9,0.1 -0.3,0.1 -0.5,0.2 -0.7,0.3 -0.2,0.1 -0.3,0.3 -0.5,0.5 -0.1,0.2 -0.2,0.4 -0.3,0.6 -0.1,0.2 -0.1,0.5 -0.1,0.7 0,0.6 0.1,1 0.3,1.4 0.2,0.4 0.5,0.6 0.9,0.8 0.4,0.2 0.8,0.3 1.3,0.3 0.3,0 0.6,0 0.8,-0.1 0.2,-0.1 0.5,-0.2 0.7,-0.4 0.2,-0.2 0.4,-0.4 0.6,-0.7 z m -2.6,-1.5 c 0,-0.1 0,-0.3 0,-0.4 0,-0.1 0,-0.3 0.1,-0.4 0,-0.1 0.1,-0.3 0.2,-0.4 0.1,-0.1 0.1,-0.2 0.2,-0.3 0.1,-0.1 0.2,-0.1 0.3,-0.1 0.1,0 0.3,0 0.3,0.1 0.1,0.1 0.2,0.2 0.2,0.3 0.1,0.1 0.1,0.2 0.1,0.4 0,0.1 0,0.3 0.1,0.4 0,0.1 0,0.3 0,0.4 z"
   id="path19" />
			<path
   class="st0"
   d="m 421,50.5 -0.2,-0.1 c -0.2,0.1 -0.4,0.2 -0.6,0.2 -0.2,0.1 -0.4,0.1 -0.6,0.1 -0.2,0 -0.4,0.1 -0.6,0.1 v 0.3 c 0.1,0 0.2,0 0.3,0 0.1,0 0.1,0 0.2,0.1 0,0 0.1,0.1 0.1,0.2 0,0.1 0,0.2 0,0.4 V 54 c 0,0.2 0,0.3 0,0.4 0,0.1 0,0.2 -0.1,0.2 0,0 -0.1,0.1 -0.2,0.1 -0.1,0 -0.2,0 -0.3,0 v 0.4 h 2.7 v -0.4 c -0.1,0 -0.3,0 -0.4,0 -0.1,0 -0.2,-0.1 -0.2,-0.1 0,-0.1 -0.1,-0.1 -0.1,-0.2 0,-0.1 0,-0.2 0,-0.4 v -2.2 c 0.2,-0.2 0.3,-0.4 0.4,-0.5 0.1,-0.1 0.3,-0.2 0.4,-0.2 0.1,0 0.1,0 0.2,0.1 0.1,0.1 0.1,0.2 0.1,0.3 0.1,0.1 0.1,0.2 0.2,0.3 0.1,0.1 0.2,0.1 0.3,0.1 0.1,0 0.2,0 0.3,-0.1 0.1,0 0.1,-0.1 0.2,-0.2 0,-0.1 0.1,-0.2 0.1,-0.3 0,-0.1 0,-0.3 -0.1,-0.4 -0.1,-0.1 -0.1,-0.2 -0.2,-0.3 -0.1,-0.1 -0.2,-0.1 -0.3,-0.2 -0.1,0 -0.2,-0.1 -0.3,-0.1 -0.2,0 -0.3,0 -0.5,0.1 -0.1,0.1 -0.3,0.1 -0.4,0.2 -0.1,0.1 -0.3,0.2 -0.4,0.4 v 0 z"
   id="path20" />
			<path
   class="st0"
   d="m 424.1,53.7 c 0,0.2 0.1,0.3 0.1,0.4 0,0.1 0,0.3 0.1,0.4 0,0.1 0,0.3 0.1,0.4 0.2,0.1 0.4,0.1 0.7,0.2 0.3,0 0.6,0.1 0.9,0.1 0.4,0 0.7,0 0.9,-0.1 0.3,-0.1 0.5,-0.2 0.7,-0.3 0.2,-0.1 0.3,-0.3 0.4,-0.5 0.1,-0.2 0.1,-0.3 0.1,-0.5 0,-0.2 0,-0.3 -0.1,-0.4 -0.1,-0.1 -0.1,-0.2 -0.2,-0.3 -0.1,-0.1 -0.2,-0.2 -0.3,-0.3 -0.1,-0.1 -0.2,-0.2 -0.3,-0.2 -0.1,-0.1 -0.2,-0.1 -0.3,-0.2 -0.1,-0.1 -0.2,-0.1 -0.3,-0.2 -0.1,-0.1 -0.2,-0.1 -0.3,-0.2 -0.1,-0.1 -0.2,-0.1 -0.3,-0.2 -0.1,-0.1 -0.2,-0.2 -0.3,-0.3 -0.1,-0.1 -0.1,-0.2 -0.1,-0.3 0,-0.1 0,-0.2 0.1,-0.2 0,-0.1 0.1,-0.1 0.2,-0.2 0.1,0 0.2,-0.1 0.2,-0.1 0.1,0 0.2,0 0.3,0 0.2,0 0.3,0 0.5,0.1 0.1,0.1 0.2,0.2 0.3,0.3 0.1,0.1 0.2,0.3 0.2,0.6 l 0.4,-0.1 c 0,-0.2 -0.1,-0.3 -0.1,-0.4 0,-0.1 0,-0.2 -0.1,-0.4 0,-0.1 0,-0.2 0,-0.3 -0.2,-0.1 -0.3,-0.1 -0.6,-0.1 -0.2,0 -0.5,-0.1 -0.8,-0.1 -0.4,0 -0.8,0.1 -1.1,0.2 -0.3,0.1 -0.5,0.2 -0.7,0.4 -0.2,0.2 -0.2,0.4 -0.2,0.6 0,0.2 0,0.3 0.1,0.5 0.1,0.1 0.1,0.3 0.2,0.4 0.1,0.1 0.2,0.2 0.3,0.2 0.1,0.1 0.2,0.1 0.3,0.2 0.1,0.1 0.2,0.2 0.4,0.2 0.2,0.1 0.3,0.2 0.4,0.2 0.1,0.1 0.2,0.1 0.3,0.2 0.1,0.1 0.1,0.1 0.2,0.2 0.1,0.1 0.1,0.1 0.1,0.2 0,0.1 0,0.1 0,0.2 0,0.1 0,0.1 0,0.2 0,0.1 -0.1,0.2 -0.1,0.2 -0.1,0.1 -0.1,0.1 -0.3,0.2 -0.1,0 -0.3,0.1 -0.4,0.1 -0.2,0 -0.4,0 -0.5,-0.1 -0.2,-0.1 -0.3,-0.2 -0.4,-0.4 -0.1,-0.2 -0.2,-0.4 -0.3,-0.7 z"
   id="path21" />
			<path
   class="st0"
   d="m 430.4,48.4 c -0.1,0 -0.3,0 -0.4,0.1 -0.1,0.1 -0.2,0.2 -0.3,0.3 -0.1,0.1 -0.1,0.3 -0.1,0.4 0,0.2 0,0.3 0.1,0.4 0.1,0.1 0.2,0.2 0.3,0.3 0.1,0.1 0.3,0.1 0.4,0.1 0.2,0 0.3,0 0.4,-0.1 0.1,-0.1 0.2,-0.2 0.3,-0.3 0.1,-0.1 0.1,-0.3 0.1,-0.4 0,-0.1 0,-0.3 -0.1,-0.4 -0.1,-0.1 -0.2,-0.2 -0.3,-0.3 -0.1,-0.1 -0.2,-0.1 -0.4,-0.1 z m 0.6,2 c -0.3,0.1 -0.7,0.2 -1,0.3 -0.3,0.1 -0.6,0.1 -0.9,0.1 v 0.4 c 0.1,0 0.3,0 0.3,0 0.1,0 0.1,0 0.2,0.1 0,0 0.1,0.1 0.1,0.2 0,0.1 0,0.2 0,0.4 V 54 c 0,0.2 0,0.3 0,0.4 0,0.1 0,0.2 -0.1,0.2 0,0 -0.1,0.1 -0.2,0.1 -0.1,0 -0.2,0 -0.3,0 v 0.4 h 2.6 v -0.4 c -0.1,0 -0.2,0 -0.3,0 -0.1,0 -0.1,0 -0.2,-0.1 0,0 -0.1,-0.1 -0.1,-0.2 0,-0.1 0,-0.2 0,-0.4 v -3.5 z"
   id="path22" />
			<path
   class="st0"
   d="m 433.3,50.9 v 2.9 c 0,0.3 0,0.5 0.1,0.7 0.1,0.2 0.2,0.3 0.3,0.4 0.1,0.1 0.3,0.2 0.5,0.2 0.2,0 0.4,0.1 0.6,0.1 0.2,0 0.4,0 0.6,0 0.2,0 0.3,-0.1 0.4,-0.1 0.1,-0.1 0.2,-0.1 0.3,-0.2 l -0.2,-0.3 c -0.1,0.1 -0.2,0.1 -0.3,0.2 -0.1,0 -0.2,0.1 -0.3,0.1 -0.1,0 -0.2,0 -0.3,-0.1 -0.1,0 -0.1,-0.1 -0.2,-0.2 0,-0.1 -0.1,-0.3 -0.1,-0.5 v -2.9 h 1.2 v -0.4 h -1.2 v -1.5 h -0.4 c -0.1,0.3 -0.2,0.6 -0.4,0.8 -0.2,0.2 -0.3,0.4 -0.5,0.5 -0.2,0.1 -0.4,0.2 -0.7,0.2 v 0.3 h 0.6 z"
   id="path23" />
			<path
   class="st0"
   d="m 438.8,56.2 c 0,0.1 -0.1,0.2 -0.2,0.3 -0.1,0.1 -0.1,0.2 -0.2,0.3 -0.1,0.1 -0.1,0.2 -0.2,0.2 -0.1,0.1 -0.2,0.1 -0.3,0.1 -0.1,0 -0.2,0 -0.2,-0.1 -0.1,-0.1 -0.1,-0.2 -0.2,-0.3 0,-0.1 -0.1,-0.1 -0.1,-0.2 0,-0.1 -0.1,-0.1 -0.2,-0.1 -0.1,0 -0.2,-0.1 -0.3,-0.1 -0.1,0 -0.1,0 -0.2,0.1 -0.1,0 -0.1,0.1 -0.2,0.2 0,0.1 -0.1,0.1 -0.1,0.2 0,0.2 0.1,0.3 0.2,0.4 0.1,0.1 0.2,0.2 0.4,0.3 0.2,0.1 0.4,0.1 0.6,0.1 0.2,0 0.4,0 0.6,-0.1 0.2,-0.1 0.3,-0.2 0.4,-0.3 0.1,-0.1 0.2,-0.3 0.3,-0.4 0.1,-0.2 0.2,-0.3 0.3,-0.5 l 2,-4.9 c 0.1,-0.1 0.1,-0.2 0.2,-0.3 0.1,-0.1 0.1,-0.1 0.2,-0.1 0.1,0 0.2,0 0.3,0 v -0.4 h -1.6 V 51 c 0.1,0 0.2,0 0.3,0 0.1,0 0.1,0.1 0.1,0.1 0,0 0,0.1 0,0.1 0,0 0,0.1 0,0.1 l -0.9,2.3 v 0 l -0.9,-2.2 c 0,-0.1 -0.1,-0.1 -0.1,-0.2 0,-0.1 0,-0.1 0,-0.2 0,-0.1 0,-0.1 0.1,-0.1 0.1,0 0.2,0 0.3,0 v -0.4 h -2.5 v 0.4 c 0.1,0 0.2,0 0.2,0 0.1,0 0.1,0 0.2,0.1 0,0 0.1,0.1 0.1,0.2 0.1,0.1 0.1,0.2 0.2,0.3 l 1.8,3.5 z"
   id="path24" />
		</g>
	</g>
	
	
	
	
	
	
	
	
	
	
	
	
	
	
	
	
</g>
</svg>
